<svg width="27" height="27" viewBox="0 0 27 27" fill="none" xmlns="http://www.w3.org/2000/svg">
<rect width="27" height="27" rx="13.5" fill="#FF0303" fill-opacity="0.2"/>
<mask id="mask0_1617_1215" style="mask-type:alpha" maskUnits="userSpaceOnUse" x="6" y="6" width="15" height="15">
<rect x="6" y="6" width="15" height="15" fill="#D9D9D9"/>
</mask>
<g mask="url(#mask0_1617_1215)">
<path d="M9.125 19.125C8.78125 19.125 8.48698 19.0026 8.24219 18.7578C7.9974 18.513 7.875 18.2188 7.875 17.875V9.125C7.875 8.78125 7.9974 8.48698 8.24219 8.24219C8.48698 7.9974 8.78125 7.875 9.125 7.875H13.5V9.125H9.125V17.875H13.5V19.125H9.125ZM16 16.625L15.1406 15.7188L16.7344 14.125H11.625V12.875H16.7344L15.1406 11.2813L16 10.375L19.125 13.5L16 16.625Z" fill="#FF0303"/>
</g>
</svg>
