<svg width="27" height="27" viewBox="0 0 27 27" fill="none" xmlns="http://www.w3.org/2000/svg">
<rect width="27" height="27" rx="13.5" fill="#09B9DF" fill-opacity="0.2"/>
<mask id="mask0_1617_1250" style="mask-type:alpha" maskUnits="userSpaceOnUse" x="5" y="5" width="17" height="17">
<rect x="5" y="5" width="17" height="17" fill="#D9D9D9"/>
</mask>
<g mask="url(#mask0_1617_1250)">
<mask id="mask1_1617_1250" style="mask-type:alpha" maskUnits="userSpaceOnUse" x="6" y="6" width="15" height="15">
<rect x="6" y="6" width="15" height="15" fill="#D9D9D9"/>
</mask>
<g mask="url(#mask1_1617_1250)">
<path d="M13.5 15.375C13.6771 15.375 13.8255 15.3151 13.9453 15.1953C14.0651 15.0755 14.125 14.9271 14.125 14.75C14.125 14.5729 14.0651 14.4245 13.9453 14.3047C13.8255 14.1849 13.6771 14.125 13.5 14.125C13.3229 14.125 13.1745 14.1849 13.0547 14.3047C12.9349 14.4245 12.875 14.5729 12.875 14.75C12.875 14.9271 12.9349 15.0755 13.0547 15.1953C13.1745 15.3151 13.3229 15.375 13.5 15.375ZM12.875 12.875H14.125V9.125H12.875V12.875ZM7.25 19.75V8.5C7.25 8.15625 7.3724 7.86198 7.61719 7.61719C7.86198 7.3724 8.15625 7.25 8.5 7.25H18.5C18.8438 7.25 19.138 7.3724 19.3828 7.61719C19.6276 7.86198 19.75 8.15625 19.75 8.5V16C19.75 16.3438 19.6276 16.638 19.3828 16.8828C19.138 17.1276 18.8438 17.25 18.5 17.25H9.75L7.25 19.75ZM9.21875 16H18.5V8.5H8.5V16.7031L9.21875 16Z" fill="#09B9DF"/>
</g>
</g>
</svg>
