<svg width="27" height="27" viewBox="0 0 27 27" fill="none" xmlns="http://www.w3.org/2000/svg">
<rect width="27" height="27" rx="13.5" fill="#38BD45" fill-opacity="0.2"/>
<mask id="mask0_1617_1205" style="mask-type:alpha" maskUnits="userSpaceOnUse" x="6" y="6" width="15" height="15">
<rect x="6" y="6" width="15" height="15" fill="#D9D9D9"/>
</mask>
<g mask="url(#mask0_1617_1205)">
<path d="M14.125 19.125C13.3542 19.125 12.6328 18.9818 11.9609 18.6953C11.2891 18.4089 10.6979 18.0156 10.1875 17.5156L11.0781 16.625C11.474 17.0104 11.9323 17.3151 12.4531 17.5391C12.974 17.763 13.5312 17.875 14.125 17.875C15.3333 17.875 16.3646 17.4479 17.2188 16.5938C18.0729 15.7396 18.5 14.7083 18.5 13.5C18.5 12.2917 18.0729 11.2604 17.2188 10.4062C16.3646 9.55208 15.3333 9.125 14.125 9.125C12.9167 9.125 11.8854 9.55208 11.0312 10.4062C10.1771 11.2604 9.75 12.2917 9.75 13.5V13.6094L10.8906 12.4688L11.7812 13.3438L9.125 16L6.46875 13.3438L7.35938 12.4688L8.5 13.625V13.5C8.5 12.7188 8.64844 11.987 8.94531 11.3047C9.24219 10.6224 9.64323 10.0286 10.1484 9.52344C10.6536 9.01823 11.2474 8.61719 11.9297 8.32031C12.612 8.02344 13.3438 7.875 14.125 7.875C14.9062 7.875 15.638 8.02344 16.3203 8.32031C17.0026 8.61719 17.5964 9.01823 18.1016 9.52344C18.6068 10.0286 19.0078 10.6224 19.3047 11.3047C19.6016 11.987 19.75 12.7188 19.75 13.5C19.75 15.0625 19.2031 16.3906 18.1094 17.4844C17.0156 18.5781 15.6875 19.125 14.125 19.125ZM12.875 16C12.6979 16 12.5495 15.9401 12.4297 15.8203C12.3099 15.7005 12.25 15.5521 12.25 15.375V13.5C12.25 13.3229 12.3099 13.1745 12.4297 13.0547C12.5495 12.9349 12.6979 12.875 12.875 12.875V12.25C12.875 11.9062 12.9974 11.612 13.2422 11.3672C13.487 11.1224 13.7812 11 14.125 11C14.4688 11 14.763 11.1224 15.0078 11.3672C15.2526 11.612 15.375 11.9062 15.375 12.25V12.875C15.5521 12.875 15.7005 12.9349 15.8203 13.0547C15.9401 13.1745 16 13.3229 16 13.5V15.375C16 15.5521 15.9401 15.7005 15.8203 15.8203C15.7005 15.9401 15.5521 16 15.375 16H12.875ZM13.5 12.875H14.75V12.25C14.75 12.0729 14.6901 11.9245 14.5703 11.8047C14.4505 11.6849 14.3021 11.625 14.125 11.625C13.9479 11.625 13.7995 11.6849 13.6797 11.8047C13.5599 11.9245 13.5 12.0729 13.5 12.25V12.875Z" fill="#38BD45"/>
</g>
</svg>
