<svg width="27" height="27" viewBox="0 0 27 27" fill="none" xmlns="http://www.w3.org/2000/svg">
<rect width="27" height="27" rx="13.5" fill="#BABE08" fill-opacity="0.2"/>
<mask id="mask0_1617_1262" style="mask-type:alpha" maskUnits="userSpaceOnUse" x="6" y="6" width="15" height="15">
<rect x="6" y="6" width="15" height="15" fill="#D9D9D9"/>
</mask>
<g mask="url(#mask0_1617_1262)">
<path d="M8.5 19.75V12.875H7.25V9.125H10.5C10.4479 9.03125 10.4141 8.93229 10.3984 8.82813C10.3828 8.72396 10.375 8.61458 10.375 8.5C10.375 7.97917 10.5573 7.53646 10.9219 7.17188C11.2865 6.80729 11.7292 6.625 12.25 6.625C12.4896 6.625 12.7135 6.66927 12.9219 6.75781C13.1302 6.84635 13.3229 6.96875 13.5 7.125C13.6771 6.95833 13.8698 6.83333 14.0781 6.75C14.2865 6.66667 14.5104 6.625 14.75 6.625C15.2708 6.625 15.7135 6.80729 16.0781 7.17188C16.4427 7.53646 16.625 7.97917 16.625 8.5C16.625 8.61458 16.6146 8.72135 16.5938 8.82031C16.5729 8.91927 16.5417 9.02083 16.5 9.125H19.75V12.875H18.5V19.75H8.5ZM14.75 7.875C14.5729 7.875 14.4245 7.9349 14.3047 8.05469C14.1849 8.17448 14.125 8.32292 14.125 8.5C14.125 8.67708 14.1849 8.82552 14.3047 8.94531C14.4245 9.0651 14.5729 9.125 14.75 9.125C14.9271 9.125 15.0755 9.0651 15.1953 8.94531C15.3151 8.82552 15.375 8.67708 15.375 8.5C15.375 8.32292 15.3151 8.17448 15.1953 8.05469C15.0755 7.9349 14.9271 7.875 14.75 7.875ZM11.625 8.5C11.625 8.67708 11.6849 8.82552 11.8047 8.94531C11.9245 9.0651 12.0729 9.125 12.25 9.125C12.4271 9.125 12.5755 9.0651 12.6953 8.94531C12.8151 8.82552 12.875 8.67708 12.875 8.5C12.875 8.32292 12.8151 8.17448 12.6953 8.05469C12.5755 7.9349 12.4271 7.875 12.25 7.875C12.0729 7.875 11.9245 7.9349 11.8047 8.05469C11.6849 8.17448 11.625 8.32292 11.625 8.5ZM8.5 10.375V11.625H12.875V10.375H8.5ZM12.875 18.5V12.875H9.75V18.5H12.875ZM14.125 18.5H17.25V12.875H14.125V18.5ZM18.5 11.625V10.375H14.125V11.625H18.5Z" fill="#BABE08"/>
</g>
</svg>
