<svg width="13" height="13" viewBox="0 0 13 13" fill="none" xmlns="http://www.w3.org/2000/svg">
<path d="M7.13636 9.81818V9.20455C7.13636 8.7803 7.22349 8.39205 7.39773 8.03977C7.57576 7.68371 7.83333 7.39962 8.17045 7.1875C8.51136 6.97159 8.92424 6.86364 9.40909 6.86364C9.90152 6.86364 10.3144 6.97159 10.6477 7.1875C10.9811 7.39962 11.233 7.68371 11.4034 8.03977C11.5739 8.39205 11.6591 8.7803 11.6591 9.20455V9.81818C11.6591 10.2424 11.572 10.6326 11.3977 10.9886C11.2273 11.3409 10.9735 11.625 10.6364 11.8409C10.303 12.053 9.89394 12.1591 9.40909 12.1591C8.91667 12.1591 8.50189 12.053 8.16477 11.8409C7.82765 11.625 7.57197 11.3409 7.39773 10.9886C7.22349 10.6326 7.13636 10.2424 7.13636 9.81818ZM8.29545 9.20455V9.81818C8.29545 10.1705 8.37879 10.4867 8.54545 10.767C8.71212 11.0436 9 11.1818 9.40909 11.1818C9.80682 11.1818 10.0871 11.0436 10.25 10.767C10.4167 10.4867 10.5 10.1705 10.5 9.81818V9.20455C10.5 8.85227 10.4205 8.53788 10.2614 8.26136C10.1023 7.98106 9.81818 7.84091 9.40909 7.84091C9.01136 7.84091 8.72538 7.98106 8.55114 8.26136C8.38068 8.53788 8.29545 8.85227 8.29545 9.20455ZM1.34091 3.15909V2.54545C1.34091 2.12121 1.42803 1.73295 1.60227 1.38068C1.7803 1.02462 2.03788 0.74053 2.375 0.528409C2.71591 0.3125 3.12879 0.204545 3.61364 0.204545C4.10606 0.204545 4.51894 0.3125 4.85227 0.528409C5.18561 0.74053 5.4375 1.02462 5.60795 1.38068C5.77841 1.73295 5.86364 2.12121 5.86364 2.54545V3.15909C5.86364 3.58333 5.77652 3.97348 5.60227 4.32955C5.43182 4.68182 5.17803 4.96591 4.84091 5.18182C4.50758 5.39394 4.09848 5.5 3.61364 5.5C3.12121 5.5 2.70644 5.39394 2.36932 5.18182C2.0322 4.96591 1.77652 4.68182 1.60227 4.32955C1.42803 3.97348 1.34091 3.58333 1.34091 3.15909ZM2.5 2.54545V3.15909C2.5 3.51136 2.58333 3.82765 2.75 4.10795C2.91667 4.38447 3.20455 4.52273 3.61364 4.52273C4.01136 4.52273 4.29167 4.38447 4.45455 4.10795C4.62121 3.82765 4.70455 3.51136 4.70455 3.15909V2.54545C4.70455 2.19318 4.625 1.87879 4.46591 1.60227C4.30682 1.32197 4.02273 1.18182 3.61364 1.18182C3.21591 1.18182 2.92992 1.32197 2.75568 1.60227C2.58523 1.87879 2.5 2.19318 2.5 2.54545ZM1.77273 12L9.77273 0.363636H11.0682L3.06818 12H1.77273Z" fill="black" fill-opacity="0.25"/>
<path d="M0 6.76136H13V7.85227H0V6.76136Z" fill="black" fill-opacity="0.25"/>
</svg>
