<svg width="27" height="27" viewBox="0 0 27 27" fill="none" xmlns="http://www.w3.org/2000/svg">
<rect width="27" height="27" rx="13.5" fill="#BE8008" fill-opacity="0.2"/>
<mask id="mask0_1617_1191" style="mask-type:alpha" maskUnits="userSpaceOnUse" x="6" y="6" width="15" height="15">
<rect x="6" y="6" width="15" height="15" fill="#D9D9D9"/>
</mask>
<g mask="url(#mask0_1617_1191)">
<path d="M13.5 19.75C12.0521 19.3854 10.8568 18.5547 9.91406 17.2578C8.97135 15.9609 8.5 14.5208 8.5 12.9375V9.125L13.5 7.25L18.5 9.125V12.9375C18.5 13.8229 18.349 14.6745 18.0469 15.4922C17.7448 16.3099 17.3125 17.0312 16.75 17.6562L14.75 15.6562C14.5625 15.7708 14.362 15.8568 14.1484 15.9141C13.9349 15.9714 13.7188 16 13.5 16C12.8125 16 12.224 15.7552 11.7344 15.2656C11.2448 14.776 11 14.1875 11 13.5C11 12.8125 11.2448 12.224 11.7344 11.7344C12.224 11.2448 12.8125 11 13.5 11C14.1875 11 14.776 11.2448 15.2656 11.7344C15.7552 12.224 16 12.8125 16 13.5C16 13.7292 15.9714 13.9505 15.9141 14.1641C15.8568 14.3776 15.7708 14.5833 15.6562 14.7812L16.5938 15.7188C16.8021 15.2917 16.9635 14.8438 17.0781 14.375C17.1927 13.9063 17.25 13.4271 17.25 12.9375V9.98438L13.5 8.57812L9.75 9.98438V12.9375C9.75 14.1979 10.1042 15.3438 10.8125 16.375C11.5208 17.4062 12.4167 18.0938 13.5 18.4375C13.7708 18.3542 14.0286 18.2474 14.2734 18.1172C14.5182 17.987 14.7604 17.8333 15 17.6562L15.875 18.5313C15.5312 18.8125 15.1589 19.0573 14.7578 19.2656C14.3568 19.474 13.9375 19.6354 13.5 19.75ZM13.5 14.75C13.8438 14.75 14.138 14.6276 14.3828 14.3828C14.6276 14.138 14.75 13.8438 14.75 13.5C14.75 13.1562 14.6276 12.862 14.3828 12.6172C14.138 12.3724 13.8438 12.25 13.5 12.25C13.1562 12.25 12.862 12.3724 12.6172 12.6172C12.3724 12.862 12.25 13.1562 12.25 13.5C12.25 13.8438 12.3724 14.138 12.6172 14.3828C12.862 14.6276 13.1562 14.75 13.5 14.75Z" fill="#BE8008"/>
</g>
</svg>
