<svg width="14" height="15" viewBox="0 0 14 15" fill="none" xmlns="http://www.w3.org/2000/svg">
<path d="M2.62335 14.7314C2.01382 14.7314 1.49572 14.518 1.06904 14.0913C0.642368 13.6647 0.429031 13.1466 0.429031 12.537V10.3427H2.62335V0.102539L3.72051 1.1997L4.81768 0.102539L5.91484 1.1997L7.012 0.102539L8.10916 1.1997L9.20632 0.102539L10.3035 1.1997L11.4006 0.102539L12.4978 1.1997L13.595 0.102539V12.537C13.595 13.1466 13.3816 13.6647 12.955 14.0913C12.5283 14.518 12.0102 14.7314 11.4006 14.7314H2.62335ZM11.4006 13.2685C11.6079 13.2685 11.7816 13.1984 11.9218 13.0582C12.062 12.918 12.1321 12.7443 12.1321 12.537V2.29686H4.08623V10.3427H10.6692V12.537C10.6692 12.7443 10.7393 12.918 10.8795 13.0582C11.0197 13.1984 11.1934 13.2685 11.4006 13.2685ZM4.81768 5.22262V3.75974H9.20632V5.22262H4.81768ZM4.81768 7.41695V5.95406H9.20632V7.41695H4.81768ZM10.6692 5.22262C10.462 5.22262 10.2882 5.15253 10.148 5.01233C10.0079 4.87214 9.93776 4.69842 9.93776 4.49118C9.93776 4.28394 10.0079 4.11022 10.148 3.97003C10.2882 3.82984 10.462 3.75974 10.6692 3.75974C10.8764 3.75974 11.0502 3.82984 11.1904 3.97003C11.3305 4.11022 11.4006 4.28394 11.4006 4.49118C11.4006 4.69842 11.3305 4.87214 11.1904 5.01233C11.0502 5.15253 10.8764 5.22262 10.6692 5.22262ZM10.6692 7.41695C10.462 7.41695 10.2882 7.34685 10.148 7.20666C10.0079 7.06646 9.93776 6.89275 9.93776 6.68551C9.93776 6.47826 10.0079 6.30455 10.148 6.16435C10.2882 6.02416 10.462 5.95406 10.6692 5.95406C10.8764 5.95406 11.0502 6.02416 11.1904 6.16435C11.3305 6.30455 11.4006 6.47826 11.4006 6.68551C11.4006 6.89275 11.3305 7.06646 11.1904 7.20666C11.0502 7.34685 10.8764 7.41695 10.6692 7.41695ZM2.62335 13.2685H9.20632V11.8056H1.89191V12.537C1.89191 12.7443 1.96201 12.918 2.1022 13.0582C2.24239 13.1984 2.41611 13.2685 2.62335 13.2685Z" fill="#09B9DF"/>
</svg>
