<svg width="16" height="17" viewBox="0 0 16 17" fill="none" xmlns="http://www.w3.org/2000/svg">
<path d="M4.48659 13.6334C5.03325 13.0467 5.86659 13.0934 6.34659 13.7334L7.01992 14.6334C7.55992 15.3467 8.43325 15.3467 8.97325 14.6334L9.64659 13.7334C10.1266 13.0934 10.9599 13.0467 11.5066 13.6334C12.6933 14.9 13.6599 14.48 13.6599 12.7067V5.19337C13.6666 2.50671 13.0399 1.83337 10.5199 1.83337H5.47992C2.95992 1.83337 2.33325 2.50671 2.33325 5.19337V12.7C2.33325 14.48 3.30659 14.8934 4.48659 13.6334Z" stroke="#053C42" stroke-width="1.5" stroke-linecap="round" stroke-linejoin="round"/>
<path d="M5.3973 7.83333H5.40329" stroke="#053C42" stroke-width="2" stroke-linecap="round" stroke-linejoin="round"/>
<path d="M7.26562 7.83337H10.9323" stroke="#053C42" stroke-width="1.5" stroke-linecap="round" stroke-linejoin="round"/>
<path d="M5.3973 5.16671H5.40329" stroke="#053C42" stroke-width="2" stroke-linecap="round" stroke-linejoin="round"/>
<path d="M7.26562 5.16663H10.9323" stroke="#053C42" stroke-width="1.5" stroke-linecap="round" stroke-linejoin="round"/>
</svg>
