<svg width="27" height="27" viewBox="0 0 27 27" fill="none" xmlns="http://www.w3.org/2000/svg">
<rect width="27" height="27" rx="13.5" fill="#BE08AC" fill-opacity="0.2"/>
<mask id="mask0_1617_1257" style="mask-type:alpha" maskUnits="userSpaceOnUse" x="6" y="6" width="15" height="15">
<rect x="6" y="6" width="15" height="15" fill="#D9D9D9"/>
</mask>
<g mask="url(#mask0_1617_1257)">
<path d="M11.375 20.0625L10.1875 18.0625L7.9375 17.5625L8.15625 15.25L6.625 13.5L8.15625 11.75L7.9375 9.4375L10.1875 8.9375L11.375 6.9375L13.5 7.84375L15.625 6.9375L16.8125 8.9375L19.0625 9.4375L18.8438 11.75L20.375 13.5L18.8438 15.25L19.0625 17.5625L16.8125 18.0625L15.625 20.0625L13.5 19.1563L11.375 20.0625ZM11.9062 18.4688L13.5 17.7813L15.125 18.4688L16 16.9688L17.7187 16.5625L17.5625 14.8125L18.7187 13.5L17.5625 12.1563L17.7187 10.4063L16 10.0313L15.0937 8.53125L13.5 9.21875L11.875 8.53125L11 10.0313L9.28125 10.4063L9.4375 12.1563L8.28125 13.5L9.4375 14.8125L9.28125 16.5938L11 16.9688L11.9062 18.4688ZM12.8437 15.7188L16.375 12.1875L15.5 11.2813L12.8437 13.9375L11.5 12.625L10.625 13.5L12.8437 15.7188Z" fill="#BE08AC"/>
</g>
</svg>
