<svg width="27" height="27" viewBox="0 0 27 27" fill="none" xmlns="http://www.w3.org/2000/svg">
<rect width="27" height="27" rx="13.5" fill="#FF7C03" fill-opacity="0.2"/>
<mask id="mask0_1617_1245" style="mask-type:alpha" maskUnits="userSpaceOnUse" x="6" y="6" width="15" height="15">
<rect x="6" y="6" width="15" height="15" fill="#D9D9D9"/>
</mask>
<g mask="url(#mask0_1617_1245)">
<path d="M16 14.125H19.125V12.25H16V14.125ZM14.75 16.625V11.625C14.75 11.4479 14.8099 11.2995 14.9297 11.1797C15.0495 11.0599 15.1979 11 15.375 11H19.75C19.9271 11 20.0755 11.0599 20.1953 11.1797C20.3151 11.2995 20.375 11.4479 20.375 11.625V14.75C20.375 14.9271 20.3151 15.0755 20.1953 15.1953C20.0755 15.3151 19.9271 15.375 19.75 15.375H16L14.75 16.625ZM10.375 20.375C10.0312 20.375 9.73698 20.2526 9.49219 20.0078C9.2474 19.763 9.125 19.4687 9.125 19.125V7.875C9.125 7.53125 9.2474 7.23698 9.49219 6.99219C9.73698 6.7474 10.0312 6.625 10.375 6.625H16.625C16.9688 6.625 17.263 6.7474 17.5078 6.99219C17.7526 7.23698 17.875 7.53125 17.875 7.875V10.375H16.625V9.75H10.375V17.25H16.625V16.625H17.875V19.125C17.875 19.4687 17.7526 19.763 17.5078 20.0078C17.263 20.2526 16.9688 20.375 16.625 20.375H10.375ZM10.375 18.5V19.125H16.625V18.5H10.375ZM10.375 8.5H16.625V7.875H10.375V8.5Z" fill="#FF7C03"/>
</g>
</svg>
