<svg width="27" height="27" viewBox="0 0 27 27" fill="none" xmlns="http://www.w3.org/2000/svg">
<rect width="27" height="27" rx="13.5" fill="#00BA96" fill-opacity="0.2"/>
<mask id="mask0_1617_1235" style="mask-type:alpha" maskUnits="userSpaceOnUse" x="5" y="5" width="17" height="17">
<rect x="5" y="5" width="17" height="17" fill="#D9D9D9"/>
</mask>
<g mask="url(#mask0_1617_1235)">
<path d="M6.41665 18.459V17.0423H20.5833V18.459H6.41665ZM7.23123 14.1736L6.3104 13.6423L6.91248 12.5798H5.70831V11.5173H6.91248L6.3104 10.4902L7.23123 9.95898L7.83331 10.9861L8.4354 9.95898L9.35623 10.4902L8.75415 11.5173H9.95831V12.5798H8.75415L9.35623 13.6423L8.4354 14.1736L7.83331 13.1111L7.23123 14.1736ZM12.8979 14.1736L11.9771 13.6423L12.5791 12.5798H11.375V11.5173H12.5791L11.9771 10.4902L12.8979 9.95898L13.5 10.9861L14.1021 9.95898L15.0229 10.4902L14.4208 11.5173H15.625V12.5798H14.4208L15.0229 13.6423L14.1021 14.1736L13.5 13.1111L12.8979 14.1736ZM18.5646 14.1736L17.6437 13.6423L18.2458 12.5798H17.0416V11.5173H18.2458L17.6437 10.4902L18.5646 9.95898L19.1666 10.9861L19.7687 9.95898L20.6896 10.4902L20.0875 11.5173H21.2916V12.5798H20.0875L20.6896 13.6423L19.7687 14.1736L19.1666 13.1111L18.5646 14.1736Z" fill="#00BA96"/>
</g>
</svg>
