<svg width="128" height="128" viewBox="0 0 128 128" fill="none" xmlns="http://www.w3.org/2000/svg">
<path d="M128 64C128 99.3462 99.3462 128 64 128C28.6538 128 0 99.3462 0 64C0 28.6538 28.6538 0 64 0C99.3462 0 128 28.6538 128 64Z" fill="#00BA96" fill-opacity="0.25"/>
<path d="M108 64C108 88.3005 88.3005 108 64 108C39.6995 108 20 88.3005 20 64C20 39.6995 39.6995 20 64 20C88.3005 20 108 39.6995 108 64Z" fill="#00BA96"/>
<path d="M120 64C120 94.9279 94.9279 120 64 120C33.0721 120 8 94.9279 8 64C8 33.0721 33.0721 8 64 8C94.9279 8 120 33.0721 120 64Z" fill="#00BA96" fill-opacity="0.25"/>
<path fill-rule="evenodd" clip-rule="evenodd" d="M55.2035 44.0395C57.8918 42.8374 60.8824 42.1833 63.9999 42.1833C76.0429 42.1833 85.8166 51.957 85.8166 64.0001C85.8166 76.0432 76.0429 85.8168 63.9999 85.8168C51.9568 85.8168 42.1831 76.0432 42.1831 64.0001C42.1831 59.0909 43.82 54.5526 46.546 50.9107C46.8163 50.5496 47.3282 50.4759 47.6893 50.7462C48.0504 51.0165 48.124 51.5284 47.8537 51.8895C45.3298 55.2616 43.8166 59.4593 43.8166 64.0001C43.8166 75.141 52.8589 84.1833 63.9999 84.1833C75.1408 84.1833 84.1831 75.141 84.1831 64.0001C84.1831 52.8592 75.1408 43.8168 63.9999 43.8168C61.1113 43.8168 58.3479 44.4228 55.8703 45.5307C55.4585 45.7148 54.9754 45.5303 54.7913 45.1185C54.6071 44.7067 54.7917 44.2236 55.2035 44.0395Z" fill="#F0FBFE"/>
<path fill-rule="evenodd" clip-rule="evenodd" d="M73.2267 57.645C73.5471 57.9626 73.5494 58.4797 73.2318 58.8001L70.8798 61.1731C70.5623 61.4934 70.0452 61.4957 69.7248 61.1782C69.4044 60.8607 69.4021 60.3435 69.7197 60.0231L72.0717 57.6501C72.3892 57.3298 72.9063 57.3275 73.2267 57.645Z" fill="#F0FBFE"/>
<path fill-rule="evenodd" clip-rule="evenodd" d="M54.7731 63.4215C55.0926 63.1031 55.6097 63.1041 55.9281 63.4236L61.1058 68.6201L65.8822 63.8624C66.2018 63.5441 66.719 63.5451 67.0373 63.8647C67.3556 64.1843 67.3546 64.7014 67.035 65.0198L61.68 70.3538C61.3605 70.6721 60.8434 70.6711 60.5251 70.3516L54.771 64.5766C54.4526 64.257 54.4535 63.7399 54.7731 63.4215Z" fill="#F0FBFE"/>
</svg>
