<svg width="27" height="27" viewBox="0 0 27 27" fill="none" xmlns="http://www.w3.org/2000/svg">
<rect width="27" height="27" rx="13.5" fill="black" fill-opacity="0.2"/>
<mask id="mask0_1617_1240" style="mask-type:alpha" maskUnits="userSpaceOnUse" x="6" y="6" width="15" height="15">
<rect x="6" y="6" width="15" height="15" fill="#D9D9D9"/>
</mask>
<g mask="url(#mask0_1617_1240)">
<path d="M12.5312 15.6875C12.7812 15.9375 13.1042 16.0599 13.5 16.0547C13.8958 16.0495 14.1875 15.9063 14.375 15.625L17.875 10.375L12.625 13.875C12.3438 14.0625 12.1953 14.349 12.1797 14.7344C12.1641 15.1198 12.2812 15.4375 12.5312 15.6875ZM13.5 8.5C14.1146 8.5 14.7057 8.58594 15.2734 8.75781C15.8411 8.92969 16.375 9.1875 16.875 9.53125L15.6875 10.2813C15.3438 10.1042 14.987 9.97135 14.6172 9.88281C14.2474 9.79427 13.875 9.75 13.5 9.75C12.1146 9.75 10.9349 10.237 9.96094 11.2109C8.98698 12.1849 8.5 13.3646 8.5 14.75C8.5 15.1875 8.5599 15.6198 8.67969 16.0469C8.79948 16.474 8.96875 16.875 9.1875 17.25H17.8125C18.0521 16.8542 18.2266 16.4427 18.3359 16.0156C18.4453 15.5885 18.5 15.1458 18.5 14.6875C18.5 14.3125 18.4557 13.9479 18.3672 13.5938C18.2786 13.2396 18.1458 12.8958 17.9688 12.5625L18.7188 11.375C19.0312 11.8646 19.2786 12.3854 19.4609 12.9375C19.6432 13.4896 19.7396 14.0625 19.75 14.6562C19.7604 15.25 19.6927 15.8177 19.5469 16.3594C19.401 16.901 19.1875 17.4167 18.9062 17.9062C18.7917 18.0938 18.6354 18.2396 18.4375 18.3438C18.2396 18.4479 18.0312 18.5 17.8125 18.5H9.1875C8.96875 18.5 8.76042 18.4479 8.5625 18.3438C8.36458 18.2396 8.20833 18.0938 8.09375 17.9062C7.82292 17.4375 7.61458 16.9401 7.46875 16.4141C7.32292 15.888 7.25 15.3333 7.25 14.75C7.25 13.8854 7.41406 13.0755 7.74219 12.3203C8.07031 11.5651 8.51823 10.9036 9.08594 10.3359C9.65365 9.76823 10.3177 9.32031 11.0781 8.99219C11.8385 8.66406 12.6458 8.5 13.5 8.5Z" fill="black"/>
</g>
</svg>
