<svg width="27" height="27" viewBox="0 0 27 27" fill="none" xmlns="http://www.w3.org/2000/svg">
<rect width="27" height="27" rx="13.5" fill="#095EDF" fill-opacity="0.2"/>
<path d="M8.75473 18.8421L8.07064 18.7805L8 19.5H8.75473V18.8421ZM15.6258 9.96053C15.6258 10.8689 14.8567 11.6053 13.908 11.6053V12.9211C15.6157 12.9211 17 11.5956 17 9.96053H15.6258ZM13.908 11.6053C12.9593 11.6053 12.1903 10.8689 12.1903 9.96053H10.816C10.816 11.5956 12.2004 12.9211 13.908 12.9211V11.6053ZM12.1903 9.96053C12.1903 9.05216 12.9593 8.31579 13.908 8.31579V7C12.2004 7 10.816 8.32547 10.816 9.96053H12.1903ZM13.908 8.31579C14.8567 8.31579 15.6258 9.05216 15.6258 9.96053H17C17 8.32547 15.6157 7 13.908 7V8.31579ZM9.43882 18.9037C9.66256 16.6249 11.4189 14.8947 13.908 14.8947V13.5789C10.6389 13.5789 8.35391 15.8955 8.07064 18.7805L9.43882 18.9037ZM8.75473 19.5H15.9693V18.1842H8.75473V19.5ZM13.908 14.8947C14.1155 14.8947 14.3168 14.9066 14.5116 14.9295L14.6786 13.6234C14.4275 13.594 14.1704 13.5789 13.908 13.5789V14.8947Z" fill="#095EDF"/>
<path fill-rule="evenodd" clip-rule="evenodd" d="M17.5984 13C16.4938 13 15.5984 13.7675 15.5984 14.7143C15.5984 15.4061 16.0765 16.0023 16.7651 16.2731V18.4286L17.5984 19L18.4317 18.4286V17.8154L17.9317 17.4286L18.4317 17V16.2731C19.1203 16.0023 19.5984 15.4061 19.5984 14.7143C19.5984 13.7675 18.703 13 17.5984 13ZM16.9317 14.7143C16.9317 14.3987 17.2302 14.1429 17.5984 14.1429C17.9666 14.1429 18.2651 14.3987 18.2651 14.7143C18.2651 15.0299 17.9666 15.2857 17.5984 15.2857C17.2302 15.2857 16.9317 15.0299 16.9317 14.7143Z" fill="#095EDF"/>
</svg>
